<svg width="884" height="419" viewBox="0 0 884 419" fill="none" xmlns="http://www.w3.org/2000/svg">
<path d="M79.4291 137.255L389.995 117.69L378.775 281.961L68.2096 301.526L79.4291 137.255Z" fill="#2D3E50"/>
<path d="M103.827 149.608L223.827 149.608V269.608H103.827L103.827 149.608Z" fill="#0080C2"/>
<path fill-rule="evenodd" clip-rule="evenodd" d="M358.671 149.608V269.608L238.671 269.608L238.671 149.608L358.671 149.608Z" fill="#56C4AE"/>
<path fill-rule="evenodd" clip-rule="evenodd" d="M230.714 173.977V199.423L134.61 199.423L134.61 173.977L230.714 173.977Z" fill="#56C4AE"/>
<path fill-rule="evenodd" clip-rule="evenodd" d="M228.183 221.569V247.015L133.69 247.015V221.569L228.183 221.569Z" fill="#56C4AE"/>
<path d="M418.23 206.072H465.59V214.136H418.23V206.072ZM419.254 247.416H473.142V255.608H409.782V166.008H471.222V174.2H419.254V247.416ZM484.807 255.608V249.08L522.055 212.6C525.468 209.272 528.028 206.37 529.735 203.896C531.441 201.336 532.593 198.946 533.191 196.728C533.788 194.509 534.087 192.418 534.087 190.456C534.087 185.25 532.295 181.154 528.711 178.168C525.212 175.181 520.007 173.688 513.095 173.688C507.804 173.688 503.111 174.498 499.015 176.12C495.004 177.741 491.548 180.258 488.647 183.672L482.119 178.04C485.617 173.944 490.097 170.786 495.559 168.568C501.02 166.349 507.121 165.24 513.863 165.24C519.921 165.24 525.169 166.221 529.607 168.184C534.044 170.061 537.457 172.834 539.847 176.504C542.321 180.173 543.559 184.482 543.559 189.432C543.559 192.333 543.132 195.192 542.279 198.008C541.511 200.824 540.06 203.81 537.927 206.968C535.879 210.04 532.849 213.538 528.839 217.464L494.663 251L492.103 247.416H547.655V255.608H484.807ZM639.569 256.376C632.827 256.376 626.598 255.266 620.881 253.048C615.163 250.744 610.214 247.544 606.033 243.448C601.851 239.352 598.566 234.53 596.177 228.984C593.873 223.437 592.721 217.378 592.721 210.808C592.721 204.237 593.873 198.178 596.177 192.632C598.566 187.085 601.851 182.264 606.033 178.168C610.299 174.072 615.291 170.914 621.009 168.696C626.726 166.392 632.955 165.24 639.697 165.24C646.182 165.24 652.283 166.349 658.001 168.568C663.718 170.701 668.539 173.944 672.465 178.296L666.449 184.312C662.779 180.557 658.726 177.869 654.289 176.248C649.851 174.541 645.073 173.688 639.953 173.688C634.577 173.688 629.585 174.626 624.977 176.504C620.369 178.296 616.358 180.898 612.945 184.312C609.531 187.64 606.843 191.565 604.881 196.088C603.003 200.525 602.065 205.432 602.065 210.808C602.065 216.184 603.003 221.133 604.881 225.656C606.843 230.093 609.531 234.018 612.945 237.432C616.358 240.76 620.369 243.362 624.977 245.24C629.585 247.032 634.577 247.928 639.953 247.928C645.073 247.928 649.851 247.074 654.289 245.368C658.726 243.661 662.779 240.93 666.449 237.176L672.465 243.192C668.539 247.544 663.718 250.829 658.001 253.048C652.283 255.266 646.139 256.376 639.569 256.376ZM715.129 256.248C708.643 256.248 702.798 254.797 697.593 251.896C692.473 248.909 688.419 244.856 685.433 239.736C682.446 234.53 680.953 228.6 680.953 221.944C680.953 215.202 682.446 209.272 685.433 204.152C688.419 199.032 692.473 195.021 697.593 192.12C702.713 189.218 708.558 187.768 715.129 187.768C721.785 187.768 727.673 189.218 732.793 192.12C737.998 195.021 742.051 199.032 744.953 204.152C747.939 209.272 749.433 215.202 749.433 221.944C749.433 228.6 747.939 234.53 744.953 239.736C742.051 244.856 737.998 248.909 732.793 251.896C727.587 254.797 721.699 256.248 715.129 256.248ZM715.129 248.184C719.993 248.184 724.302 247.117 728.057 244.984C731.811 242.765 734.755 239.693 736.889 235.768C739.107 231.757 740.217 227.149 740.217 221.944C740.217 216.653 739.107 212.045 736.889 208.12C734.755 204.194 731.811 201.165 728.057 199.032C724.302 196.813 720.035 195.704 715.257 195.704C710.478 195.704 706.211 196.813 702.457 199.032C698.702 201.165 695.715 204.194 693.497 208.12C691.278 212.045 690.169 216.653 690.169 221.944C690.169 227.149 691.278 231.757 693.497 235.768C695.715 239.693 698.702 242.765 702.457 244.984C706.211 247.117 710.435 248.184 715.129 248.184ZM767.987 255.608V188.408H776.691V206.712L775.795 203.512C777.672 198.392 780.829 194.509 785.267 191.864C789.704 189.133 795.208 187.768 801.779 187.768V196.6C801.437 196.6 801.096 196.6 800.755 196.6C800.413 196.514 800.072 196.472 799.731 196.472C792.648 196.472 787.101 198.648 783.091 203C779.08 207.266 777.075 213.368 777.075 221.304V255.608H767.987ZM846.281 256.248C839.283 256.248 833.139 254.797 827.849 251.896C822.558 248.909 818.419 244.856 815.433 239.736C812.446 234.53 810.953 228.6 810.953 221.944C810.953 215.288 812.361 209.4 815.177 204.28C818.078 199.16 822.003 195.149 826.953 192.248C831.987 189.261 837.619 187.768 843.849 187.768C850.163 187.768 855.753 189.218 860.617 192.12C865.566 194.936 869.449 198.946 872.265 204.152C875.081 209.272 876.489 215.202 876.489 221.944C876.489 222.37 876.446 222.84 876.361 223.352C876.361 223.778 876.361 224.248 876.361 224.76H817.865V217.976H871.497L867.913 220.664C867.913 215.8 866.846 211.49 864.713 207.736C862.665 203.896 859.849 200.909 856.265 198.776C852.681 196.642 848.542 195.576 843.849 195.576C839.241 195.576 835.102 196.642 831.433 198.776C827.763 200.909 824.905 203.896 822.857 207.736C820.809 211.576 819.785 215.97 819.785 220.92V222.328C819.785 227.448 820.894 231.97 823.113 235.896C825.417 239.736 828.574 242.765 832.585 244.984C836.681 247.117 841.331 248.184 846.537 248.184C850.633 248.184 854.43 247.458 857.929 246.008C861.513 244.557 864.585 242.338 867.145 239.352L872.265 245.24C869.278 248.824 865.523 251.554 861.001 253.432C856.563 255.309 851.657 256.248 846.281 256.248Z" fill="#2D3E50"/>
<path d="M230.714 173.977L328.126 173.977V199.423H230.714L230.714 173.977Z" fill="#0080C2"/>
<path d="M264.353 221.569L363.377 221.569V247.015H264.353L264.353 221.569Z" fill="#0080C2"/>
</svg>
