<?xml version="1.0" encoding="UTF-8" standalone="no"?><!DOCTYPE svg PUBLIC "-//W3C//DTD SVG 1.1//EN" "http://www.w3.org/Graphics/SVG/1.1/DTD/svg11.dtd"><svg width="100%" height="100%" viewBox="0 0 1950 1950" version="1.1" xmlns="http://www.w3.org/2000/svg" xmlns:xlink="http://www.w3.org/1999/xlink" xml:space="preserve" xmlns:serif="http://www.serif.com/" style="fill-rule:evenodd;clip-rule:evenodd;stroke-linejoin:round;stroke-miterlimit:2;"><path d="M1355.64,230.796l226.67,-226.667c64.163,64.163 64.163,168.192 0,232.359l-86.62,86.616c-43.442,-35.426 -90.366,-66.354 -140.05,-92.308Zm-908.117,1372.83c-184.233,-151.746 -301.692,-381.629 -301.692,-638.942c0,-456.95 370.434,-827.383 827.384,-827.383c137.966,0 268.046,33.771 382.425,93.492l-442.438,442.437c-64.166,64.167 -64.166,168.196 0,232.359l582.488,-582.488c186.075,151.717 304.908,382.775 304.908,641.583c0,456.95 -370.433,827.384 -827.383,827.384c-139.513,-0 -270.963,-34.529 -386.263,-95.509l442.425,-442.429c64.167,-64.162 64.167,-168.196 0,-232.358l-581.854,581.854Zm0,0c43.218,35.608 89.933,66.745 139.429,92.933l-249.316,249.317c-64.167,-64.167 -64.167,-168.196 -0,-232.362l109.887,-109.888Z" style="fill:#e9faf8;"/><path d="M1355.64,230.796l226.67,-226.667c64.163,64.163 64.163,168.192 0,232.359l-86.62,86.616c-43.442,-35.426 -90.366,-66.354 -140.05,-92.308Zm-908.117,1372.83c-184.233,-151.746 -301.692,-381.629 -301.692,-638.942c0,-456.95 370.434,-827.383 827.384,-827.383c137.966,0 268.046,33.771 382.425,93.492l-442.438,442.437c-64.166,64.167 -64.166,168.196 0,232.359l582.488,-582.488c186.075,151.717 304.908,382.775 304.908,641.583c0,456.95 -370.433,827.384 -827.383,827.384c-139.513,-0 -270.963,-34.529 -386.263,-95.509l442.425,-442.429c64.167,-64.162 64.167,-168.196 0,-232.358l-581.854,581.854Zm0,0c43.218,35.608 89.933,66.745 139.429,92.933l-249.316,249.317c-64.167,-64.167 -64.167,-168.196 -0,-232.362l109.887,-109.888Z" style="fill:url(#_Linear1);"/><defs><linearGradient id="_Linear1" x1="0" y1="0" x2="1" y2="0" gradientUnits="userSpaceOnUse" gradientTransform="matrix(-1343.52,-5728.62,5728.62,-1343.52,-571.492,3202.87)"><stop offset="0" style="stop-color:#00196f;stop-opacity:1"/><stop offset="0.33" style="stop-color:#13b0d9;stop-opacity:1"/><stop offset="0.61" style="stop-color:#9af3fa;stop-opacity:1"/><stop offset="1" style="stop-color:#9af3fa;stop-opacity:1"/></linearGradient></defs></svg>