<svg width="398" height="468" fill="none" xmlns="http://www.w3.org/2000/svg"><path fill-rule="evenodd" clip-rule="evenodd" d="m290.354 55.391 54.401-54.4c15.399 15.399 15.399 40.366 0 55.766l-20.789 20.788a198.91 198.91 0 0 0-33.612-22.154ZM72.406 384.871C28.19 348.452 0 293.28 0 231.525 0 121.857 88.904 32.953 198.572 32.953c33.112 0 64.331 8.105 91.782 22.438L184.169 161.576c-15.4 15.4-15.4 40.367 0 55.766L323.966 77.545c44.658 36.412 73.178 91.866 73.178 153.98 0 109.668-88.904 198.572-198.572 198.572-33.483 0-65.031-8.287-92.703-22.922l106.182-106.183c15.4-15.399 15.4-40.367 0-55.766L72.406 384.871Zm0 0a198.944 198.944 0 0 0 33.463 22.304l-59.836 59.836c-15.4-15.4-15.4-40.367 0-55.767l26.373-26.373Z" fill="#E9FAF8"/><path fill-rule="evenodd" clip-rule="evenodd" d="m290.354 55.391 54.401-54.4c15.399 15.399 15.399 40.366 0 55.766l-20.789 20.788a198.91 198.91 0 0 0-33.612-22.154ZM72.406 384.871C28.19 348.452 0 293.28 0 231.525 0 121.857 88.904 32.953 198.572 32.953c33.112 0 64.331 8.105 91.782 22.438L184.169 161.576c-15.4 15.4-15.4 40.367 0 55.766L323.966 77.545c44.658 36.412 73.178 91.866 73.178 153.98 0 109.668-88.904 198.572-198.572 198.572-33.483 0-65.031-8.287-92.703-22.922l106.182-106.183c15.4-15.399 15.4-40.367 0-55.766L72.406 384.871Zm0 0a198.944 198.944 0 0 0 33.463 22.304l-59.836 59.836c-15.4-15.4-15.4-40.367 0-55.767l26.373-26.373Z" fill="url(#a)"/><defs><linearGradient id="a" x1="-172.158" y1="768.688" x2="-494.602" y2="-606.181" gradientUnits="userSpaceOnUse"><stop stop-color="#00196F"/><stop offset=".33" stop-color="#13B0D9"/><stop offset=".612" stop-color="#9AF3FA"/></linearGradient></defs></svg>