<svg id="e70f83b7-a294-42c8-9987-2dd738d26f2f" data-name="Layer 2" xmlns="http://www.w3.org/2000/svg" viewBox="0 0 633.7455 326.9594"><path d="M343.5564,191.735l2.9-5.7012c5,4.9,13.9009,8.5019,23.1016,8.5019,13.1008,0,18.801-5.5019,18.801-12.4023,0-19.2012-43.1025-7.4-43.1025-33.3008,0-10.3008,8-19.2012,25.8015-19.2012,7.9006,0,16.1011,2.3008,21.7014,6.1993l-2.5,5.9a36.0381,36.0381,0,0,0-19.2012-5.7988c-12.8008,0-18.501,5.6992-18.501,12.6992,0,19.2012,43.1026,7.6016,43.1026,33.1036,0,10.3007-8.2,19.1-26.1016,19.1C359.0574,200.8346,348.7568,197.1353,343.5564,191.735Z" style="fill:#4c6275"/><path d="M475.6587,181.5338H436.6562l-8.4006,18.7012h-7.7l32.0019-70.004h7.3005l32.002,70.004h-7.8Zm-2.7-6-16.801-37.6016-16.8011,37.6016Z" style="fill:#4c6275"/><path d="M533.5574,136.6314H508.956v-6.4h56.6033v6.4H540.958V200.235h-7.4006Z" style="fill:#4c6275"/><path d="M170.9506,162.1752s-.0316-107.35-.0316-109.5864a3.2251,3.2251,0,0,0-3.3448-3.1606,7.6856,7.6856,0,0,0-3.8549,1.1557L71.7253,104.07a6.9675,6.9675,0,0,0-3.4654,6.0448l.3231,106.4124a6.9672,6.9672,0,0,0,3.502,6.0232l92.3175,52.9263a6.9658,6.9658,0,0,0,6.9673-.0215L263.3639,221.97a6.968,6.968,0,0,0,3.1589-3.979,3.41,3.41,0,0,0-1.5927-4.2542C262.8529,212.6263,170.9506,162.1752,170.9506,162.1752Z" style="fill:#4c6275"/><circle cx="167.8425" cy="164.1695" r="55.9363" transform="translate(-50.0487 76.7273) rotate(-22.5)" style="fill:#303e4e"/><ellipse cx="119.1353" cy="192.2894" rx="15.5201" ry="33.6269" transform="translate(-86.1357 97.2512) rotate(-33.3756)" style="fill:#8abeb0"/><ellipse cx="122.5612" cy="190.0168" rx="4.0698" ry="8.8178" transform="translate(-84.3204 98.7611) rotate(-33.3756)" style="fill:#303e4e"/><path d="M201.2177,60.77a4.8578,4.8578,0,0,1,3.1006,6.1305l-18.18,55.3877c-.8368,2.5493-2.3871-.2349-4.9362-1.0716s-5.1319.5908-4.2952-1.9585l18.18-55.3876A4.8579,4.8579,0,0,1,201.2177,60.77Z" style="fill:#8abeb0;fill-rule:evenodd"/><ellipse cx="181.4055" cy="121.4159" rx="2.7092" ry="7.814" transform="translate(9.8747 256.4231) rotate(-72)" style="fill:#8abeb0"/><path d="M274.164,186.5538a4.858,4.858,0,0,1-5.7729,3.7244l-56.9846-12.2911c-2.6228-.5658-.0159-2.3986.55-5.0212s-1.1241-5.0421,1.4987-4.4763L270.44,180.7807A4.8579,4.8579,0,0,1,274.164,186.5538Z" style="fill:#8abeb0;fill-rule:evenodd"/><ellipse cx="211.7797" cy="173.1892" rx="7.814" ry="2.7092" transform="translate(-1.6564 344.333) rotate(-78)" style="fill:#8abeb0"/></svg>