<svg id="e8d2ff48-8517-4835-9fc4-2533463c0798" data-name="Layer 2" xmlns="http://www.w3.org/2000/svg" viewBox="0 0 775.1192 326.9594"><path d="M267.21,216.1641V109.4366a6.9238,6.9238,0,0,0-3.4618-5.996L171.32,50.0769a6.9235,6.9235,0,0,0-6.9236,0L71.9674,103.4406a6.9236,6.9236,0,0,0-3.4618,5.996V216.1641a6.9234,6.9234,0,0,0,3.4618,5.996l92.4287,53.3638a6.9235,6.9235,0,0,0,6.9236,0L263.7485,222.16A6.9236,6.9236,0,0,0,267.21,216.1641Z" style="fill:#4c6275"/><polygon points="99.632 219.849 167.858 180.458 236.084 219.849 167.858 259.239 99.632 219.849" style="fill:#303e4e"/><polygon points="235.813 201.721 235.813 123.254 167.858 84.02 99.903 123.254 99.903 201.721 167.858 240.955 235.813 201.721" style="fill:#74c2b0"/><polygon points="99.632 123.41 167.858 84.02 236.084 123.41 167.858 162.8 99.632 123.41" style="fill:#303e4e"/><path d="M399.1418,181.5422h-39l-8.3994,18.7h-7.7l32-70h7.3l32,70h-7.8Zm-2.7-6-16.8-37.6-16.8,37.6Z" style="fill:#4c6275"/><path d="M457.0422,136.6428h-24.6v-6.4h56.6v6.4h-24.6v63.6h-7.4Z" style="fill:#4c6275"/><path d="M593.5412,130.2424v70h-7.1v-56l-27.5,47.1h-3.5l-27.5-46.8v55.7h-7.1v-70h6.1l30.4,51.9,30.1-51.9Z" style="fill:#4c6275"/><path d="M648.091,196.1926a33.9526,33.9526,0,0,1-13.2-12.75,37.2431,37.2431,0,0,1,0-36.4,33.9526,33.9526,0,0,1,13.2-12.75,40.5256,40.5256,0,0,1,37.6-.05,34.0638,34.0638,0,0,1,13.15,12.75,37.0954,37.0954,0,0,1,0,36.5,34.0357,34.0357,0,0,1-13.15,12.75,40.5256,40.5256,0,0,1-37.6-.05Zm33.85-5.7a27.1431,27.1431,0,0,0,10.5-10.4,30.9153,30.9153,0,0,0,0-29.6992,27.15,27.15,0,0,0-10.5-10.4,31.9746,31.9746,0,0,0-30.05,0,27.3972,27.3972,0,0,0-10.6005,10.4,30.5648,30.5648,0,0,0,0,29.6992,27.39,27.39,0,0,0,10.6005,10.4,31.9746,31.9746,0,0,0,30.05,0Z" style="fill:#4c6275"/></svg>