<?xml version="1.0" encoding="utf-8"?>
<!-- Generator: Adobe Illustrator 25.3.1, SVG Export Plug-In . SVG Version: 6.00 Build 0)  -->
<svg version="1.1" id="Layer_2" xmlns="http://www.w3.org/2000/svg" xmlns:xlink="http://www.w3.org/1999/xlink" x="0px" y="0px"
	 viewBox="0 0 918.9 327" style="enable-background:new 0 0 918.9 327;" xml:space="preserve">
<style type="text/css">
	.st0{fill:#FFFFFF;}
	.st1{fill:#231F20;}
	.st2{fill:#357FBE;}
	.st3{fill:#224E84;}
	.st4{fill:#74C2B0;}
	.st5{fill:#A6A8AB;}
	.st6{fill:#58595B;}
	.st7{fill:#4C6275;}
	.st8{fill:#303E4E;}
</style>
<g>
	<polygon class="st0" points="125.5,142 125.6,142 97.5,125.8 97.5,125.8 	"/>
	<g>
		<polygon class="st7" points="169.9,84.2 169.9,48.8 73.7,104.1 104.5,121.8 		"/>
		<polygon class="st7" points="169.9,124.1 67.1,183.7 67.1,218.5 169.9,159.4 		"/>
		<polygon class="st7" points="169.9,167.4 169.9,202.9 272.7,143.7 272.7,108.4 272.7,108.3 		"/>
		<polygon class="st7" points="169.9,278.2 272.7,219 272.7,218.6 272.7,183.7 272.7,183.4 169.9,242.8 		"/>
	</g>
	<g>
		<polygon class="st4" points="169.9,202.9 169.9,167.4 139.1,185.1 		"/>
		<polygon class="st4" points="73.7,222.8 169.9,278.2 169.9,242.8 104.4,205.1 		"/>
		<polygon class="st4" points="125.5,142 97.5,125.8 97.5,125.8 67.1,108.3 67.1,108.4 67.1,143.3 67.1,143.7 94.8,159.7 		"/>
		<polygon class="st4" points="266.1,104.1 169.9,48.8 169.9,84.2 235.4,121.8 		"/>
		<polygon class="st4" points="214.7,185.2 235.2,197 265.9,179.3 245.4,167.5 		"/>
		<polygon class="st4" points="169.9,159.4 200.7,141.8 169.9,124.1 		"/>
	</g>
</g>
<g>
	<path class="st7" d="M415.5,130.9l-31,70h-7.3l-31-70h8l26.8,60.8l27-60.8H415.5z"/>
	<path class="st7" d="M495.1,194.5v6.4h-49.5v-70h48v6.4H453v24.9h36.2v6.3H453v26H495.1z"/>
	<path class="st7" d="M554.2,168l-14.3,14.5v18.4h-7.4v-70h7.4v42.3l41.1-42.3h8.5l-30.3,31.7l32.4,38.3h-8.8L554.2,168z"/>
	<path class="st7" d="M633.2,137.3h-24.6v-6.4h56.6v6.4h-24.6v63.6h-7.4V137.3z"/>
	<path class="st7" d="M707.8,196.8c-5.6-3.1-10-7.4-13.2-12.8c-3.2-5.4-4.8-11.5-4.8-18.2c0-6.7,1.6-12.8,4.8-18.2
		c3.2-5.4,7.6-9.6,13.2-12.8c5.6-3.1,11.9-4.6,18.8-4.6c6.9,0,13.2,1.5,18.8,4.6c5.6,3.1,10,7.3,13.2,12.8
		c3.2,5.4,4.8,11.5,4.8,18.2c0,6.7-1.6,12.8-4.8,18.2c-3.2,5.4-7.6,9.7-13.2,12.8c-5.6,3.1-11.8,4.6-18.8,4.6
		C719.7,201.5,713.4,199.9,707.8,196.8z M741.6,191.1c4.5-2.5,8-6,10.5-10.4c2.5-4.4,3.8-9.4,3.8-14.8c0-5.5-1.3-10.4-3.8-14.8
		c-2.5-4.4-6-7.9-10.5-10.4c-4.5-2.5-9.5-3.8-15-3.8c-5.5,0-10.5,1.2-15,3.8s-8,6-10.6,10.4s-3.8,9.4-3.8,14.8
		c0,5.5,1.3,10.4,3.8,14.8c2.6,4.4,6.1,7.9,10.6,10.4s9.5,3.8,15,3.8C732.1,194.9,737.1,193.6,741.6,191.1z"/>
	<path class="st7" d="M847.7,200.9l-16-22.5c-1.8,0.2-3.7,0.3-5.6,0.3h-18.8v22.2h-7.4v-70h26.2c8.9,0,15.9,2.1,21,6.4
		c5.1,4.3,7.6,10.1,7.6,17.6c0,5.5-1.4,10.1-4.2,13.8c-2.8,3.8-6.7,6.5-11.8,8.2l17.1,24H847.7z M841.8,167.8
		c3.7-3.1,5.5-7.4,5.5-12.9c0-5.7-1.8-10-5.5-13c-3.7-3-9-4.5-15.9-4.5h-18.6v35.1h18.6C832.8,172.4,838.1,170.8,841.8,167.8z"/>
</g>
</svg>
