<?xml version="1.0" standalone="yes"?>
<svg xmlns="http://www.w3.org/2000/svg" width="5226" height="1512">
<path style="fill:#ffffff; stroke:none;" d="M0 0L0 1512L5226 1512L5226 0L0 0z"/>
<path style="fill:#0f4f87; stroke:none;" d="M701 325.424C672.145 329.213 643.664 330.082 615 336.651C535.795 354.802 459.698 395.581 402 453.001C377.722 477.162 355.623 503.932 337.424 533C332.799 540.388 320.13 554.679 323.743 563.985C325.692 569.002 331.562 571.027 336 573.247C346.997 578.746 358.126 584.043 369 589.781C378.226 594.649 392.275 605.772 403 605.626C413.611 605.482 423.607 580.848 429.025 573C449.191 543.795 474.808 517.394 503 495.884C551.204 459.105 608.016 435.108 668 426.272C689.605 423.089 711.188 422.745 733 423.004C740.2 423.089 752.564 427.345 758.891 423.141C764.439 419.456 764.295 409.937 765.13 404C767.57 386.649 770.243 369.29 773.08 352C774.08 345.906 777.455 335.6 772.427 330.573C768.211 326.355 759.483 327.361 754 326.83C736.916 325.177 718.124 323.176 701 325.424z"/>
<path style="fill:#0181c3; stroke:none;" d="M795.019 349.742C789.487 351.945 789.357 357.963 788.576 363C786.766 374.66 785.148 386.355 783.246 398C782.387 403.259 780.984 409.37 786.214 412.911C792.395 417.094 802.851 417.218 810 419.151C825.309 423.292 840.278 428.311 855 434.2C900.849 452.54 944.329 480.685 978.961 516.015C1012.84 550.574 1039.87 591.395 1058.58 636C1064.54 650.236 1069.44 665.134 1073.58 680C1075.39 686.523 1075.66 696.372 1079.73 701.867C1083.3 706.694 1088.85 705.769 1094 704.92C1107.59 702.679 1125.31 702.631 1137.98 697.272C1149.31 692.481 1140.4 671.411 1138 663C1128.54 629.875 1116.32 598.507 1100.22 568C1053.81 480.051 974.13 409.853 882 373C861.721 364.888 841.179 358.42 820 353.127C812.965 351.368 802.144 346.905 795.019 349.742M661 457.443C516.794 478.138 408.609 607.776 395.17 749C389.885 804.533 401.078 862.401 424.309 913C429.851 925.072 436.39 936.739 443.425 948C446.508 952.935 450.272 958.914 457 957.59C469.184 955.193 484.185 939.349 494 931.87C497.898 928.9 502.72 925.413 502.786 920C502.887 911.797 493.92 902.094 490.258 895C481.506 878.042 474.535 860.387 469.424 842C450.441 773.705 462.621 697.321 501.344 638C527.627 597.737 564.4 564.375 608 543.781C622.414 536.972 637.537 531.291 653 527.374C659.516 525.724 671.612 525.556 676.427 520.57C680.653 516.195 678.465 509.309 678 504C676.932 491.808 678.841 454.882 661 457.443z"/>
<path style="fill:#57c5af; stroke:none;" d="M698.015 462.653C686.609 466.345 693.362 491.257 694.733 500C695.391 504.195 696.549 508.066 701.04 509.486C710.146 512.366 722.486 509.623 732 510.039C747.327 510.711 763.082 513.344 778 516.884C852.444 534.552 916.392 584.889 952.691 652C976.378 695.792 987.544 748.473 982.83 798C981.354 813.508 978.751 828.978 974.576 844C972.473 851.566 966.632 862.118 967.707 869.999C969.037 879.76 987.253 883.718 995 887C998.418 888.448 1002.17 890.498 1006 889.551C1017.69 886.66 1021.39 856.991 1023.65 847C1034.32 799.859 1033.84 752.194 1023.79 705C999.792 592.318 907.174 499.428 796 471.627C772.07 465.642 747.679 462 723 462C715.373 462 705.319 460.289 698.015 462.653z"/>
<path style="fill:#0181c3; stroke:none;" d="M698 564.424C686.549 565.932 662.753 565.332 654.318 574.279C650.85 577.956 651.943 583.697 653.439 588C657.189 598.782 661.722 609.294 665.681 620C667.492 624.896 668.968 631.253 674.018 633.817C678.445 636.064 684.452 633.68 689 632.803C698.646 630.943 708.188 629.996 718 630C743.705 630.01 770.276 638.579 792 652.064C809.523 662.942 824.721 677.936 836.255 695C841.452 702.69 844.687 714.617 856 712.671C868.645 710.496 882.077 703.332 894 698.601C898.711 696.732 904.626 695.399 906.343 689.96C908.464 683.245 902.27 674.613 899.138 669C888.592 650.097 874.409 634.045 859 619.015C818.966 579.964 753.855 557.069 698 564.424z"/>
<path style="fill:#0f4f87; stroke:none;" d="M620 569.569C603.593 572.503 584.593 588.393 572 598.611C524.695 636.995 497.365 691.252 489.424 751C486.24 774.957 488.22 800.438 493.424 824C495.21 832.086 496.456 846.899 508 845.389C528.221 842.743 550.907 829.453 570 822.192C576.186 819.84 586.61 817.917 589.254 810.985C592.481 802.522 586.001 786.43 586 777C585.998 754.234 591.542 731.86 602.873 712C611.494 696.889 623.144 683.417 637 672.899C642.855 668.455 656.487 663.404 658.566 655.985C660.579 648.802 655.75 640.484 653.203 634C646.814 617.738 640.788 601.33 634.576 585C632.014 578.266 629.302 567.906 620 569.569z"/>
<path style="fill:#57c5af; stroke:none;" d="M336.004 594.613C328.15 596.507 325.224 609.44 322.6 616C314.005 637.488 307.303 659.455 302.119 682C279.435 780.65 293.499 887.902 341.691 977C355.485 1002.5 371.316 1026.71 389.92 1049C395.077 1055.18 404.241 1070.56 414 1067.09C425.946 1062.85 446.768 1041.51 437.316 1029C421.987 1008.71 405.297 990.167 392.424 968C351.164 896.946 332.102 813.845 342.285 732C345.461 706.469 351.2 681.4 359.333 657C363.42 644.741 371.454 631.63 373.606 619C375.625 607.143 356.224 601.797 348 597.756C344.381 595.978 340.182 593.605 336.004 594.613z"/>
<path style="fill:#0f4f87; stroke:none;" d="M1426 841C1421.86 851.096 1417.3 861.07 1412.77 871C1411.25 874.333 1407.3 880.209 1408.42 883.961C1409.73 888.368 1416.35 891.581 1420 893.796C1432.44 901.348 1446.05 906.704 1460 910.709C1511.47 925.485 1590.07 927.582 1626.1 880C1633.58 870.126 1638.24 858.135 1640.39 846C1641.98 836.97 1641.72 826.03 1640.25 817C1631.36 762.623 1566.96 753.508 1523 742.374C1507.15 738.359 1489.41 734.132 1477.17 722.561C1462.02 708.236 1469.25 685.593 1485 675.105C1504.56 662.078 1532.78 662.608 1555 666.614C1567.43 668.855 1579.39 672.458 1591 677.427C1598.26 680.535 1605.17 685.604 1613 687C1615.79 676.795 1620.54 666.717 1624.72 657C1626.18 653.605 1629.7 647.943 1627.88 644.21C1625.98 640.328 1619.64 638.068 1616 636.248C1604.06 630.278 1590.99 626.289 1578 623.349C1527.35 611.89 1451.42 615.149 1423.31 667C1417.26 678.153 1414 690.318 1414 703C1414 713.616 1414.29 723.855 1417.86 734C1432.94 776.807 1486.75 785.062 1525 794.627C1544.36 799.468 1570.95 804.051 1582.75 822C1598.71 846.285 1570.02 866.73 1549 870.996C1518.64 877.16 1484.96 871.495 1457 858.691C1446.06 853.684 1436.64 846.294 1426 841M2719 618.424C2679.35 623.63 2644.43 631.744 2614 660.089C2554.75 715.278 2554.16 817.978 2611.09 874.911C2647.85 911.666 2702.56 924.513 2753 917.718C2776.86 914.504 2799.87 906.151 2820 892.921C2886.52 849.205 2904.31 752.151 2860.92 686C2839.49 653.318 2804.95 630.946 2767 622.576C2752 619.267 2734.33 616.411 2719 618.424M1775 623L1775 761C1775 797.996 1774.27 835.293 1794.46 868C1842.53 945.858 1982.86 934.684 2019.69 853C2032.93 823.622 2031 791.376 2031 760L2031 623L1977 623L1977 762C1977 789.882 1978.71 819.82 1962.25 844C1933.92 885.623 1860.67 878.044 1839.26 834C1827.63 810.074 1830 781.809 1830 756L1830 623L1775 623M2190 623L2190 915L2319 915C2349.82 915 2382.99 915.774 2411 900.691C2467.94 870.023 2460.09 783.801 2399 763C2410.35 755.345 2419.98 747.324 2426.51 735C2445.55 699.099 2432.02 652.916 2395 635.32C2366.77 621.9 2336.43 623 2306 623L2190 623M3024 623L3024 915L3079 915L3079 830L3133 830L3154.82 831.028L3169.03 850L3201.14 896L3214.52 913.972L3232 915L3274 915L3252.72 883L3208 819C3280.17 794.426 3290.92 686.462 3229 644.671C3197.14 623.165 3160.87 623 3124 623L3024 623M3412 623L3412 915L3540 915C3573.79 915 3608.92 915.492 3639 897.547C3679.02 873.675 3683.24 812.999 3651 781.004C3643.3 773.361 3632.99 765.648 3622 764C3632.34 751.486 3644.88 744.955 3651.71 729C3668.87 688.907 3647.49 644.848 3607 631.003C3579.58 621.627 3551.55 623 3523 623L3412 623M3812 623L3812 915L3868 915L3868 623L3812 623M3991 623L3991 669L4088 669L4088 915L4143 915L4143 669L4240 669L4240 623L3991 623M4307 915L4349 915C4353.11 915 4360.98 916.506 4364.19 913.397C4367.81 909.884 4369.47 902.575 4371.42 898L4385.85 864C4388.49 857.845 4390.12 848.365 4398 848.019C4430.2 846.607 4462.77 848 4495 848C4506.01 848 4525.72 844.146 4535.78 848.603C4540.49 850.696 4542.81 860.572 4544.72 865C4549.75 876.655 4554.5 888.452 4559.77 900C4561.61 904.042 4562.99 910.143 4566.07 913.397C4569.05 916.535 4577.06 915 4581 915L4624 915C4618.82 893.185 4604.98 871.478 4595.86 851C4574.59 803.23 4553.08 755.545 4531.31 708C4522.18 688.058 4513.67 667.809 4504.26 648C4500.97 641.098 4498.58 629.974 4493.03 624.603C4490.11 621.772 4483.73 623 4480 623C4467.99 623 4451.66 620.077 4440.11 623.318C4434.47 624.899 4432.01 636.228 4429.74 641C4421.43 658.479 4413.69 676.298 4405.86 694C4384.44 742.449 4362.75 790.834 4340.69 839C4329.48 863.478 4314.4 889.126 4307 915M4744 623L4744 915L4951 915L4951 868L4799 868L4799 623L4744 623z"/>
<path style="fill:#ffffff; stroke:none;" d="M2245 666L2245 745L2320 745C2336.67 745 2355.97 743.995 2368.83 731.699C2387.74 713.614 2379.35 682.459 2357 672.312C2341.96 665.483 2325.12 666 2309 666L2245 666M3467 666L3467 745L3541 745C3558.29 745 3577.45 744.298 3590.96 731.816C3609.41 714.77 3602.94 683.273 3581 672.89C3565.78 665.686 3548.42 666 3532 666L3467 666M2715 667.424C2698.67 669.595 2682.99 674.067 2669 683.089C2616.36 717.033 2610.31 797.725 2653.17 841.911C2676.26 865.716 2710.98 874.032 2743 869.718C2830.14 857.979 2860.57 736.778 2788 685.721C2777.6 678.405 2766.36 673.147 2754 670.13C2741.5 667.079 2727.82 665.721 2715 667.424M3079 669L3079 785C3113.48 785 3159.28 792.461 3190 773.533C3226.55 751.008 3219.21 693.086 3182 676.312C3151.89 662.739 3111.21 669 3079 669M4464 680L4426.58 768L4412 804L4519 804L4466 680L4464 680z"/>
<path style="fill:#0f4f87; stroke:none;" d="M924 705.562C917.308 706.232 910.254 710.217 904 712.576L862 728.576C856.238 730.75 845.305 732.738 842.742 739.044C838.982 748.299 845.315 764.948 845.545 775C846.029 796.197 839.747 818.452 829.691 837C821.62 851.889 810.231 865.446 797 875.996C790.852 880.898 776.421 886.569 773.603 894.015C771.111 900.604 775.902 908.978 778.192 915C784.402 931.33 790.501 947.709 796.811 964C799.405 970.698 801.132 980.866 810 980.913C826.297 980.998 848.025 961.399 860 951.8C910.542 911.288 935.3 853.84 942.714 791C945.251 769.502 942.214 746.003 937.576 725C935.936 717.578 934.285 704.532 924 705.562z"/>
<path style="fill:#57c5af; stroke:none;" d="M1128 716.432C1119.87 717.486 1100.29 717.671 1094.89 724.394C1089.43 731.203 1094.9 746.934 1095 755C1095.31 781.164 1095.2 807.127 1090.92 833C1076.9 917.834 1036.09 993.588 974 1052.96C960.542 1065.83 945.464 1077.64 930 1088C922.05 1093.33 909.87 1098.13 903.653 1105.38C896.598 1113.61 910.223 1133.4 914.877 1140.96C916.798 1144.08 919.203 1146.47 923.004 1146.85C930.89 1147.65 939.719 1139.93 946 1135.95C964.681 1124.09 982.209 1110.81 999 1096.42C1071.94 1033.93 1124.16 940.335 1137.87 845C1142.44 813.192 1146.79 778.117 1142.58 746C1141.19 735.441 1144.22 714.329 1128 716.432z"/>
<path style="fill:#ffffff; stroke:none;" d="M2245 789L2245 872L2319 872C2335.69 872 2354.42 872.661 2370 865.688C2392.98 855.401 2403.7 824.077 2384.81 804.09C2372.41 790.961 2351.97 789 2335 789L2245 789M3467 789L3467 872L3540 872C3557.91 872 3577.24 872.449 3594 865.124C3618.37 854.476 3624.84 820.488 3604.99 802.105C3591.91 789.992 3571.77 789 3555 789L3467 789z"/>
<path style="fill:#57c5af; stroke:none;" d="M566 841.61C558.267 843.573 536.88 849.198 533.743 857.043C530.973 863.971 537.673 873.294 541.012 879C552.255 898.217 566.911 915.949 584 930.246C622.366 962.344 669.337 978 719 978C735.068 978 756.162 977.231 770.995 970.348C783.613 964.493 772.15 945.778 768.808 937C767.163 932.68 765.774 927.418 760.985 925.603C755.358 923.472 747.63 926.56 742 927.576C730.982 929.563 720.175 930.129 709 929.996C678.34 929.632 647.223 916.828 623 898.625C607.951 887.316 594.668 873.083 584.811 857C580.175 849.436 576.96 838.827 566 841.61z"/>
<path style="fill:#0f4f87; stroke:none;" d="M937.015 882.667C930.284 884.661 927.292 894.533 923.939 900C915.35 914.005 905.319 926.609 894.576 939C868.369 969.224 830.281 993.622 792 1005.28C726.78 1025.14 656.29 1019.47 597 984.397C580.013 974.347 564.435 962.362 550 948.911C544.093 943.406 537.506 931.53 529 930.244C521.55 929.117 514.434 936.798 509 940.873C493.047 952.838 469.85 964.59 457.318 980.09C449.496 989.765 463.852 1001.68 470.015 1008C491.013 1029.53 513.71 1048.06 539 1064.31C627.473 1121.16 743.707 1129.56 841 1091.94C912.059 1064.46 971.694 1012.41 1010.4 947C1014.3 940.397 1024.06 928.115 1021.09 920.015C1018.64 913.331 1008.9 911.096 1003 908.579C987.289 901.875 971.694 894.892 956 888.15C950.578 885.822 943.117 880.86 937.015 882.667z"/>
<path style="fill:#0181c3; stroke:none;" d="M460 1047.74C453.065 1050.38 447.134 1058.87 442 1064C435.593 1070.41 421.088 1080.11 421.088 1090C421.088 1100.42 437.714 1109.77 445 1115.6C472.086 1137.27 501.647 1155.41 533 1170.22C619.95 1211.29 720.462 1221.08 814 1200.42C835.177 1195.75 855.75 1189.13 876 1181.42C884.264 1178.28 894.743 1175.37 901.867 1170.03C906.58 1166.5 906.385 1160.93 904.204 1156C899.235 1144.77 892.76 1134 887.247 1123C884.927 1118.37 882.703 1112.27 876.985 1111.23C867.386 1109.48 854.842 1118.05 846 1121.32C824.256 1129.36 801.893 1135.72 779 1139.56C709.685 1151.19 637.677 1142.55 573 1114.72C543.355 1101.96 515.45 1085.41 490 1065.58C482.683 1059.87 470.459 1043.77 460 1047.74z"/>
</svg>
