<svg width="4660" height="887" viewBox="0 0 4660 887" fill="none" xmlns="http://www.w3.org/2000/svg">
<path d="M410 1.42402C381.145 5.21302 352.664 6.08201 324 12.651C244.795 30.802 168.698 71.581 111 129.001C86.722 153.162 64.623 179.932 46.424 209C41.799 216.388 29.13 230.679 32.743 239.985C34.692 245.002 40.562 247.027 45 249.247C55.997 254.746 67.126 260.043 78 265.781C87.226 270.649 101.275 281.772 112 281.626C122.611 281.482 132.607 256.848 138.025 249C158.191 219.795 183.808 193.394 212 171.884C260.204 135.105 317.016 111.108 377 102.272C398.605 99.089 420.188 98.745 442 99.004C449.2 99.089 461.564 103.345 467.891 99.141C473.439 95.456 473.295 85.937 474.13 80C476.57 62.649 479.243 45.29 482.08 28C483.08 21.906 486.455 11.6 481.427 6.57301C477.211 2.35501 468.483 3.361 463 2.83C445.916 1.177 427.124 -0.823979 410 1.42402Z" fill="#0F4F87"/>
<path d="M504.019 25.742C498.487 27.945 498.357 33.963 497.576 39C495.766 50.66 494.148 62.355 492.246 74C491.387 79.259 489.984 85.37 495.214 88.911C501.395 93.094 511.851 93.218 519 95.151C534.309 99.292 549.278 104.311 564 110.2C609.849 128.54 653.329 156.685 687.961 192.015C721.84 226.574 748.87 267.395 767.58 312C773.54 326.236 778.44 341.134 782.58 356C784.39 362.523 784.66 372.372 788.73 377.867C792.3 382.694 797.85 381.769 803 380.92C816.59 378.679 834.31 378.631 846.98 373.272C858.31 368.481 849.4 347.411 847 339C837.54 305.875 825.32 274.507 809.22 244C762.81 156.051 683.13 85.853 591 49C570.721 40.888 550.179 34.42 529 29.127C521.965 27.368 511.144 22.905 504.019 25.742ZM370 133.443C225.794 154.138 117.609 283.776 104.17 425C98.8851 480.533 110.078 538.401 133.309 589C138.851 601.072 145.39 612.739 152.425 624C155.508 628.935 159.272 634.914 166 633.59C178.184 631.193 193.185 615.349 203 607.87C206.898 604.9 211.72 601.413 211.786 596C211.887 587.797 202.92 578.094 199.258 571C190.506 554.042 183.535 536.387 178.424 518C159.441 449.705 171.621 373.321 210.344 314C236.627 273.737 273.4 240.375 317 219.781C331.414 212.972 346.537 207.291 362 203.374C368.516 201.724 380.612 201.556 385.427 196.57C389.653 192.195 387.465 185.309 387 180C385.932 167.808 387.841 130.882 370 133.443Z" fill="#0181C3"/>
<path d="M407.015 138.653C395.609 142.345 402.362 167.257 403.733 176C404.391 180.195 405.549 184.066 410.04 185.486C419.146 188.366 431.486 185.623 441 186.039C456.327 186.711 472.082 189.344 487 192.884C561.444 210.552 625.392 260.889 661.691 328C685.378 371.792 696.544 424.473 691.83 474C690.354 489.508 687.751 504.978 683.576 520C681.473 527.566 675.632 538.118 676.707 545.999C678.037 555.76 696.253 559.718 704 563C707.418 564.448 711.17 566.498 715 565.551C726.69 562.66 730.39 532.991 732.65 523C743.32 475.859 742.84 428.194 732.79 381C708.792 268.318 616.174 175.428 505 147.627C481.07 141.642 456.679 138 432 138C424.373 138 414.319 136.289 407.015 138.653Z" fill="#57C5AF"/>
<path d="M407 240.424C395.549 241.932 371.753 241.332 363.318 250.279C359.85 253.956 360.943 259.697 362.439 264C366.189 274.782 370.722 285.294 374.681 296C376.492 300.896 377.968 307.253 383.018 309.817C387.445 312.064 393.452 309.68 398 308.803C407.646 306.943 417.188 305.996 427 306C452.705 306.01 479.276 314.579 501 328.064C518.523 338.942 533.721 353.936 545.255 371C550.452 378.69 553.687 390.617 565 388.671C577.645 386.496 591.077 379.332 603 374.601C607.711 372.732 613.626 371.399 615.343 365.96C617.464 359.245 611.27 350.613 608.138 345C597.592 326.097 583.409 310.045 568 295.015C527.966 255.964 462.855 233.069 407 240.424Z" fill="#0181C3"/>
<path d="M329 245.569C312.593 248.503 293.593 264.393 281 274.611C233.695 312.995 206.365 367.252 198.424 427C195.24 450.957 197.22 476.438 202.424 500C204.21 508.086 205.456 522.899 217 521.389C237.221 518.743 259.907 505.453 279 498.192C285.186 495.84 295.61 493.917 298.254 486.985C301.481 478.522 295.001 462.43 295 453C294.998 430.234 300.542 407.86 311.873 388C320.494 372.889 332.144 359.417 346 348.899C351.855 344.455 365.487 339.404 367.566 331.985C369.579 324.802 364.75 316.484 362.203 310C355.814 293.738 349.788 277.33 343.576 261C341.014 254.266 338.302 243.906 329 245.569Z" fill="#0F4F87"/>
<path d="M45.004 270.613C37.15 272.507 34.224 285.44 31.6 292C23.005 313.488 16.303 335.455 11.119 358C-11.565 456.65 2.49904 563.902 50.691 653C64.485 678.5 80.316 702.71 98.92 725C104.077 731.18 113.241 746.56 123 743.09C134.946 738.85 155.768 717.51 146.316 705C130.987 684.71 114.297 666.167 101.424 644C60.164 572.946 41.102 489.845 51.285 408C54.461 382.469 60.2 357.4 68.333 333C72.42 320.741 80.454 307.63 82.606 295C84.625 283.143 65.224 277.797 57 273.756C53.381 271.978 49.182 269.605 45.004 270.613Z" fill="#57C5AF"/>
<path d="M1135 517C1130.86 527.096 1126.3 537.07 1121.77 547C1120.25 550.333 1116.3 556.209 1117.42 559.961C1118.73 564.368 1125.35 567.581 1129 569.796C1141.44 577.348 1155.05 582.704 1169 586.709C1220.47 601.485 1299.07 603.582 1335.1 556C1342.58 546.126 1347.24 534.135 1349.39 522C1350.98 512.97 1350.72 502.03 1349.25 493C1340.36 438.623 1275.96 429.508 1232 418.374C1216.15 414.359 1198.41 410.132 1186.17 398.561C1171.02 384.236 1178.25 361.593 1194 351.105C1213.56 338.078 1241.78 338.608 1264 342.614C1276.43 344.855 1288.39 348.458 1300 353.427C1307.26 356.535 1314.17 361.604 1322 363C1324.79 352.795 1329.54 342.717 1333.72 333C1335.18 329.605 1338.7 323.943 1336.88 320.21C1334.98 316.328 1328.64 314.068 1325 312.248C1313.06 306.278 1299.99 302.289 1287 299.349C1236.35 287.89 1160.42 291.149 1132.31 343C1126.26 354.153 1123 366.318 1123 379C1123 389.616 1123.29 399.855 1126.86 410C1141.94 452.807 1195.75 461.062 1234 470.627C1253.36 475.468 1279.95 480.051 1291.75 498C1307.71 522.285 1279.02 542.73 1258 546.996C1227.64 553.16 1193.96 547.495 1166 534.691C1155.06 529.684 1145.64 522.294 1135 517ZM2428 294.424C2388.35 299.63 2353.43 307.744 2323 336.089C2263.75 391.278 2263.16 493.978 2320.09 550.911C2356.85 587.666 2411.56 600.513 2462 593.718C2485.86 590.504 2508.87 582.151 2529 568.921C2595.52 525.205 2613.31 428.151 2569.92 362C2548.49 329.318 2513.95 306.946 2476 298.576C2461 295.267 2443.33 292.411 2428 294.424ZM1484 299V437C1484 473.996 1483.27 511.293 1503.46 544C1551.53 621.858 1691.86 610.684 1728.69 529C1741.93 499.622 1740 467.376 1740 436V299H1686V438C1686 465.882 1687.71 495.82 1671.25 520C1642.92 561.623 1569.67 554.044 1548.26 510C1536.63 486.074 1539 457.809 1539 432V299H1484ZM1899 299V591H2028C2058.82 591 2091.99 591.774 2120 576.691C2176.94 546.023 2169.09 459.801 2108 439C2119.35 431.345 2128.98 423.324 2135.51 411C2154.55 375.099 2141.02 328.916 2104 311.32C2075.77 297.9 2045.43 299 2015 299H1899ZM2733 299V591H2788V506H2842L2863.82 507.028L2878.03 526L2910.14 572L2923.52 589.972L2941 591H2983L2961.72 559L2917 495C2989.17 470.426 2999.92 362.462 2938 320.671C2906.14 299.165 2869.87 299 2833 299H2733ZM3121 299V591H3249C3282.79 591 3317.92 591.492 3348 573.547C3388.02 549.675 3392.24 488.999 3360 457.004C3352.3 449.361 3341.99 441.648 3331 440C3341.34 427.486 3353.88 420.955 3360.71 405C3377.87 364.907 3356.49 320.848 3316 307.003C3288.58 297.627 3260.55 299 3232 299H3121ZM3521 299V591H3577V299H3521ZM3700 299V345H3797V591H3852V345H3949V299H3700ZM4016 591H4058C4062.11 591 4069.98 592.506 4073.19 589.397C4076.81 585.884 4078.47 578.575 4080.42 574L4094.85 540C4097.49 533.845 4099.12 524.365 4107 524.019C4139.2 522.607 4171.77 524 4204 524C4215.01 524 4234.72 520.146 4244.78 524.603C4249.49 526.696 4251.81 536.572 4253.72 541C4258.75 552.655 4263.5 564.452 4268.77 576C4270.61 580.042 4271.99 586.143 4275.07 589.397C4278.05 592.535 4286.06 591 4290 591H4333C4327.82 569.185 4313.98 547.478 4304.86 527C4283.59 479.23 4262.08 431.545 4240.31 384C4231.18 364.058 4222.67 343.809 4213.26 324C4209.97 317.098 4207.58 305.974 4202.03 300.603C4199.11 297.772 4192.73 299 4189 299C4176.99 299 4160.66 296.077 4149.11 299.318C4143.47 300.899 4141.01 312.228 4138.74 317C4130.43 334.479 4122.69 352.298 4114.86 370C4093.44 418.449 4071.75 466.834 4049.69 515C4038.48 539.478 4023.4 565.126 4016 591ZM4453 299V591H4660V544H4508V299H4453Z" fill="#0F4F87"/>
<path d="M1954 342V421H2029C2045.67 421 2064.97 419.995 2077.83 407.699C2096.74 389.614 2088.35 358.459 2066 348.312C2050.96 341.483 2034.12 342 2018 342H1954ZM3176 342V421H3250C3267.29 421 3286.45 420.298 3299.96 407.816C3318.41 390.77 3311.94 359.273 3290 348.89C3274.78 341.686 3257.42 342 3241 342H3176ZM2424 343.424C2407.67 345.595 2391.99 350.067 2378 359.089C2325.36 393.033 2319.31 473.725 2362.17 517.911C2385.26 541.716 2419.98 550.032 2452 545.718C2539.14 533.979 2569.57 412.778 2497 361.721C2486.6 354.405 2475.36 349.147 2463 346.13C2450.5 343.079 2436.82 341.721 2424 343.424ZM2788 345V461C2822.48 461 2868.28 468.461 2899 449.533C2935.55 427.008 2928.21 369.086 2891 352.312C2860.89 338.739 2820.21 345 2788 345ZM4173 356L4135.58 444L4121 480H4228L4175 356H4173Z" fill="white"/>
<path d="M633 381.562C626.308 382.232 619.254 386.217 613 388.576L571 404.576C565.238 406.75 554.305 408.738 551.742 415.044C547.982 424.299 554.315 440.948 554.545 451C555.029 472.197 548.747 494.452 538.691 513C530.62 527.889 519.231 541.446 506 551.996C499.852 556.898 485.421 562.569 482.603 570.015C480.111 576.604 484.902 584.978 487.192 591C493.402 607.33 499.501 623.709 505.811 640C508.405 646.698 510.132 656.866 519 656.913C535.297 656.998 557.025 637.399 569 627.8C619.542 587.288 644.3 529.84 651.714 467C654.251 445.502 651.214 422.003 646.576 401C644.936 393.578 643.285 380.532 633 381.562Z" fill="#0F4F87"/>
<path d="M837 392.432C828.87 393.486 809.29 393.671 803.89 400.394C798.43 407.203 803.9 422.934 804 431C804.31 457.164 804.2 483.127 799.92 509C785.9 593.834 745.09 669.588 683 728.96C669.542 741.83 654.464 753.64 639 764C631.05 769.33 618.87 774.13 612.653 781.38C605.598 789.61 619.223 809.4 623.877 816.96C625.798 820.08 628.203 822.47 632.004 822.85C639.89 823.65 648.719 815.93 655 811.95C673.681 800.09 691.209 786.81 708 772.42C780.94 709.93 833.16 616.335 846.87 521C851.44 489.192 855.79 454.117 851.58 422C850.19 411.441 853.22 390.329 837 392.432Z" fill="#57C5AF"/>
<path d="M1954 465V548H2028C2044.69 548 2063.42 548.661 2079 541.688C2101.98 531.401 2112.7 500.077 2093.81 480.09C2081.41 466.961 2060.97 465 2044 465H1954ZM3176 465V548H3249C3266.91 548 3286.24 548.449 3303 541.124C3327.37 530.476 3333.84 496.488 3313.99 478.105C3300.91 465.992 3280.77 465 3264 465H3176Z" fill="white"/>
<path d="M275 517.61C267.267 519.573 245.88 525.198 242.743 533.043C239.973 539.971 246.673 549.294 250.012 555C261.255 574.217 275.911 591.949 293 606.246C331.366 638.344 378.337 654 428 654C444.068 654 465.162 653.231 479.995 646.348C492.613 640.493 481.15 621.778 477.808 613C476.163 608.68 474.774 603.418 469.985 601.603C464.358 599.472 456.63 602.56 451 603.576C439.982 605.563 429.175 606.129 418 605.996C387.34 605.632 356.223 592.828 332 574.625C316.951 563.316 303.668 549.083 293.811 533C289.175 525.436 285.96 514.827 275 517.61Z" fill="#57C5AF"/>
<path d="M646.015 558.667C639.284 560.661 636.292 570.533 632.939 576C624.35 590.005 614.319 602.609 603.576 615C577.369 645.224 539.281 669.622 501 681.28C435.78 701.14 365.29 695.47 306 660.397C289.013 650.347 273.435 638.362 259 624.911C253.093 619.406 246.506 607.53 238 606.244C230.55 605.117 223.434 612.798 218 616.873C202.047 628.838 178.85 640.59 166.318 656.09C158.496 665.765 172.852 677.68 179.015 684C200.013 705.53 222.71 724.06 248 740.31C336.473 797.16 452.707 805.56 550 767.94C621.059 740.46 680.694 688.41 719.4 623C723.3 616.397 733.06 604.115 730.09 596.015C727.64 589.331 717.9 587.096 712 584.579C696.289 577.875 680.694 570.892 665 564.15C659.578 561.822 652.117 556.86 646.015 558.667Z" fill="#0F4F87"/>
<path d="M169 723.74C162.065 726.38 156.134 734.87 151 740C144.593 746.41 130.088 756.11 130.088 766C130.088 776.42 146.714 785.77 154 791.6C181.086 813.27 210.647 831.41 242 846.22C328.95 887.29 429.462 897.08 523 876.42C544.177 871.75 564.75 865.13 585 857.42C593.264 854.28 603.743 851.37 610.867 846.03C615.58 842.5 615.385 836.93 613.204 832C608.235 820.77 601.76 810 596.247 799C593.927 794.37 591.703 788.27 585.985 787.23C576.386 785.48 563.842 794.05 555 797.32C533.256 805.36 510.893 811.72 488 815.56C418.685 827.19 346.677 818.55 282 790.72C252.355 777.96 224.45 761.41 199 741.58C191.683 735.87 179.459 719.77 169 723.74Z" fill="#0181C3"/>
</svg>
