<svg width="420" height="108" viewBox="0 0 420 108" fill="none" xmlns="http://www.w3.org/2000/svg">
<path d="M35.8677 25C35.8677 25.1031 35.8677 25.2061 35.8677 25.3146C35.8677 27.09 35.1625 28.7926 33.9071 30.048C32.6517 31.3034 30.9491 32.0086 29.1737 32.0086C27.3984 32.0086 25.6957 31.3034 24.4404 30.048C23.185 28.7926 22.4797 27.09 22.4797 25.3146C22.4797 25.2061 22.4797 25.1031 22.4797 25H0V83.38H58.38V25H35.8677ZM27.861 77.1308L25.0185 63.0647H24.9696L21.8939 77.1308H17.9773L13.5399 56.4629H17.4077L20.0549 70.529H20.1037L23.2934 56.4629H26.9117L29.7759 70.7026H29.8247L32.8462 56.4629H36.6435L31.7125 77.1308H27.861ZM49.1581 77.1308L47.8399 72.5307H40.8801L39.8657 77.1308H35.9979L40.9995 56.4629H47.1022L53.1832 77.1308H49.1581Z" fill="#654FF0"/>
<path d="M43.3266 61.5567L41.6395 69.1404H46.8906L44.954 61.5567H43.3266Z" fill="#654FF0"/>
<path d="M110.36 67.9608H105.77L101.43 52.7208C101.243 52.0542 101.01 51.0942 100.73 49.8408C100.45 48.5875 100.28 47.7175 100.22 47.2308C100.1 47.9775 99.9101 48.9442 99.6501 50.1308C99.3901 51.3175 99.1701 52.2042 98.9901 52.7908L94.7601 67.9608H90.2301L86.9301 55.1608L83.5701 42.4008H87.8401L91.4901 57.2808C92.0024 59.3691 92.4096 61.4818 92.7101 63.6108C92.8367 62.6175 93.0301 61.5108 93.2901 60.2908C93.5501 59.0708 93.7834 58.0708 93.9901 57.2908L98.1501 42.3608H102.29L106.56 57.3608C107.107 59.4082 107.538 61.4848 107.85 63.5808C108.121 61.4538 108.542 59.3486 109.11 57.2808L112.75 42.4208H116.98L110.36 67.9608Z" fill="#393939"/>
<path d="M138.27 67.9609H123.82V42.4009H138.27V45.9309H127.99V52.9309H137.62V56.4309H127.99V64.4309H138.27V67.9609Z" fill="#393939"/>
<path d="M147.02 42.4009H154.61C158.13 42.4009 160.673 42.9142 162.24 43.9409C163.024 44.4728 163.655 45.2022 164.067 46.0555C164.48 46.9087 164.66 47.8557 164.59 48.8009C164.639 50.1354 164.234 51.4471 163.44 52.5209C162.612 53.545 161.425 54.214 160.12 54.3909V54.5609C161.645 54.7417 163.06 55.449 164.12 56.5609C165.006 57.7004 165.457 59.1188 165.39 60.5609C165.439 61.5843 165.247 62.6049 164.83 63.5409C164.413 64.4769 163.783 65.3023 162.99 65.9509C161.053 67.3554 158.688 68.0445 156.3 67.9009H147.02V42.4009ZM151.2 52.9609H155.2C156.53 53.0613 157.861 52.773 159.03 52.1309C159.46 51.7994 159.797 51.3635 160.011 50.8646C160.224 50.3658 160.307 49.8206 160.25 49.2809C160.289 48.7705 160.188 48.2591 159.959 47.8012C159.73 47.3434 159.382 46.9562 158.95 46.6809C157.667 46.0569 156.243 45.7811 154.82 45.8809H151.2V52.9609ZM151.2 56.3509V64.4409H155.64C157.046 64.5476 158.449 64.1968 159.64 63.4409C160.092 63.0559 160.446 62.5679 160.67 62.018C160.894 61.4681 160.984 60.8724 160.93 60.2809C160.979 59.7062 160.88 59.1287 160.642 58.6034C160.403 58.0781 160.034 57.6228 159.57 57.2809C158.322 56.5388 156.879 56.1903 155.43 56.2809L151.2 56.3509Z" fill="#393939"/>
<path d="M192.23 67.9609L189.05 59.8309H178.8L175.65 67.9609H172.65L182.75 42.2809H185.25L195.3 67.9409L192.23 67.9609ZM188.12 57.1609L185.12 49.2409C184.733 48.2409 184.337 47.0109 183.93 45.5509C183.646 46.814 183.289 48.0594 182.86 49.2809L179.86 57.2009L188.12 57.1609Z" fill="#393939"/>
<path d="M218.61 61.1609C218.656 62.1701 218.457 63.1755 218.03 64.0913C217.604 65.0072 216.962 65.8064 216.16 66.4209C214.219 67.7735 211.882 68.4387 209.52 68.3109C207.13 68.4288 204.742 68.0297 202.52 67.1409V64.2809C203.628 64.7251 204.777 65.06 205.95 65.2809C207.157 65.5329 208.387 65.6602 209.62 65.6609C211.196 65.7713 212.765 65.3754 214.1 64.5309C214.588 64.1706 214.981 63.6958 215.242 63.1482C215.504 62.6006 215.627 61.9971 215.6 61.3909C215.635 60.6285 215.451 59.8721 215.07 59.2109C214.611 58.5522 214.001 58.0137 213.29 57.6409C212.07 56.9966 210.799 56.4548 209.49 56.0209C207.569 55.4568 205.817 54.4262 204.39 53.0209C203.331 51.7436 202.786 50.1181 202.86 48.4609C202.828 47.5572 203.014 46.6591 203.4 45.8415C203.786 45.0239 204.362 44.3105 205.08 43.7609C206.78 42.5263 208.851 41.909 210.95 42.0109C213.355 41.9861 215.739 42.4629 217.95 43.4109L217.02 46.0009C215.08 45.1507 212.988 44.6985 210.87 44.6709C209.564 44.5929 208.268 44.9441 207.18 45.6709C206.747 45.9963 206.4 46.4222 206.168 46.9117C205.936 47.4012 205.827 47.9397 205.85 48.4809C205.819 49.238 205.988 49.9899 206.34 50.6609C206.751 51.3106 207.318 51.8469 207.99 52.2209C209.124 52.856 210.316 53.3817 211.55 53.7909C213.603 54.3845 215.494 55.4378 217.08 56.8709C218.129 58.047 218.678 59.5862 218.61 61.1609V61.1609Z" fill="#393939"/>
<path d="M243.63 61.1609C243.676 62.1701 243.477 63.1755 243.05 64.0913C242.624 65.0072 241.982 65.8064 241.18 66.4209C239.239 67.7735 236.902 68.4387 234.54 68.3109C232.15 68.4288 229.762 68.0297 227.54 67.1409V64.2809C228.648 64.7251 229.797 65.06 230.97 65.2809C232.177 65.5329 233.407 65.6602 234.64 65.6609C236.216 65.7713 237.785 65.3754 239.12 64.5309C239.608 64.1706 240.001 63.6958 240.262 63.1482C240.524 62.6006 240.647 61.9971 240.62 61.3909C240.655 60.6285 240.471 59.8721 240.09 59.2109C239.631 58.5522 239.021 58.0137 238.31 57.6409C237.09 56.9966 235.819 56.4548 234.51 56.0209C232.589 55.4568 230.837 54.4262 229.41 53.0209C228.352 51.7436 227.806 50.1181 227.88 48.4609C227.849 47.5572 228.034 46.6591 228.42 45.8415C228.806 45.0239 229.382 44.3105 230.1 43.7609C231.8 42.5263 233.871 41.909 235.97 42.0109C238.375 41.9861 240.759 42.4629 242.97 43.4109L242.04 46.0009C240.1 45.1507 238.008 44.6985 235.89 44.6709C234.584 44.5929 233.288 44.9441 232.2 45.6709C231.767 45.9963 231.42 46.4222 231.188 46.9117C230.956 47.4012 230.847 47.9397 230.87 48.4809C230.839 49.238 231.008 49.9899 231.36 50.6609C231.771 51.3106 232.338 51.8469 233.01 52.2209C234.144 52.856 235.336 53.3817 236.57 53.7909C238.623 54.3845 240.514 55.4378 242.1 56.8709C243.149 58.047 243.698 59.5862 243.63 61.1609V61.1609Z" fill="#393939"/>
<path d="M268.47 67.9609H254.23V42.4009H268.48V45.0409H257.2V53.2809H267.79V55.9009H257.2V65.2809H268.48L268.47 67.9609Z" fill="#393939"/>
<path d="M290.82 67.9609L282.15 45.2809H282.01C282.17 47.0742 282.253 49.2075 282.26 51.6809V67.9409H279.52V42.4009H284L292.09 63.4809H292.23L300.36 42.4009H304.8V67.9609H301.8V51.4909C301.8 49.6042 301.883 47.5542 302.05 45.3409H301.91L293.17 67.9609H290.82Z" fill="#393939"/>
<path d="M317.2 42.4009H324.42C327.813 42.4009 330.267 42.9075 331.78 43.9209C332.544 44.4565 333.154 45.1817 333.552 46.0251C333.95 46.8685 334.122 47.801 334.05 48.7309C334.102 50.0945 333.65 51.4295 332.78 52.4809C331.809 53.5318 330.499 54.2079 329.08 54.3909V54.5609C332.96 55.2275 334.9 57.2675 334.9 60.6809C334.951 61.691 334.769 62.6994 334.366 63.6274C333.964 64.5554 333.352 65.3779 332.58 66.0309C330.714 67.4143 328.419 68.0943 326.1 67.9509H317.18L317.2 42.4009ZM320.2 53.3409H325.09C326.666 53.4623 328.242 53.1143 329.62 52.3409C330.107 51.9429 330.488 51.4305 330.729 50.8494C330.97 50.2684 331.063 49.6367 331 49.0109C331.048 48.4032 330.93 47.794 330.658 47.2481C330.387 46.7022 329.973 46.24 329.46 45.9109C327.944 45.151 326.253 44.8059 324.56 44.9109H320.19L320.2 53.3409ZM320.2 55.8609V65.4209H325.53C327.172 65.5369 328.808 65.1157 330.19 64.2209C330.731 63.7661 331.155 63.1882 331.426 62.5357C331.698 61.8832 331.809 61.1751 331.75 60.4709C331.799 59.8 331.678 59.1276 331.399 58.5158C331.119 57.9041 330.69 57.3727 330.15 56.9709C328.674 56.1209 326.979 55.7309 325.28 55.8509L320.2 55.8609Z" fill="#393939"/>
<path d="M345.77 67.9609V42.4009H348.77V65.2809H360.05V67.9709L345.77 67.9609Z" fill="#393939"/>
<path d="M376.22 55.1809L383.04 42.4009H386.26L377.73 58.0409V67.9509H374.73V58.1809L366.22 42.3909H369.47L376.22 55.1809Z" fill="#393939"/>
</svg>
