<svg version="1.1" id="Layer_1" xmlns="http://www.w3.org/2000/svg" x="0" y="0" xml:space="preserve" viewBox="70 78.12 1118.1 212.52">
  <style>
    .st0{fill:#0e4e87}.st1{fill:#0080c2}.st2{fill:#56c4ae}
  </style>
  <path class="st0" d="M349.8 218.2c-5-1.5-9-3.6-12-6.1l4.5-10.1c2.9 2.3 6.4 4.1 10.5 5.5 4.2 1.4 8.4 2.2 12.5 2.2 5.2 0 9.1-.8 11.7-2.5 2.6-1.7 3.8-3.9 3.8-6.6 0-2-.7-3.6-2.1-4.9-1.4-1.3-3.2-2.3-5.5-3.1-2.2-.7-5.2-1.6-9-2.5-5.3-1.3-9.7-2.5-13-3.8-3.3-1.3-6.1-3.2-8.5-6-2.4-2.7-3.5-6.3-3.5-10.9 0-3.9 1-7.4 3.2-10.6 2.1-3.2 5.3-5.7 9.5-7.5 4.2-1.9 9.4-2.8 15.5-2.8 4.3 0 8.5.5 12.6 1.6s7.7 2.6 10.7 4.6l-4.1 10.1c-3.1-1.8-6.3-3.2-9.6-4.1-3.3-.9-6.6-1.4-9.7-1.4-5.1 0-8.9.9-11.4 2.6-2.5 1.7-3.8 4-3.8 6.9 0 2 .7 3.6 2.1 4.9 1.4 1.3 3.2 2.3 5.5 3 2.2.7 5.2 1.6 9 2.5 5.2 1.2 9.5 2.5 12.8 3.8 3.3 1.3 6.2 3.3 8.5 6 2.4 2.7 3.6 6.3 3.6 10.8 0 3.9-1.1 7.4-3.2 10.5-2.1 3.1-5.3 5.6-9.5 7.5-4.3 1.9-9.5 2.8-15.6 2.8-5.3-.1-10.5-.9-15.5-2.4zM434.1 212.4c-5.4-5.4-8.1-13.2-8.1-23.3v-39.5h13v39c0 13.7 5.9 20.6 17.8 20.6 11.8 0 17.7-6.9 17.7-20.6v-39h12.8V189c0 10.1-2.7 17.9-8 23.3-5.4 5.4-12.9 8.2-22.5 8.2-9.8 0-17.3-2.7-22.7-8.1zM584.3 189.5c2.3 3 3.4 6.6 3.4 11 0 6.1-2.3 10.8-7 14-4.7 3.3-11.5 5-20.4 5h-34.8v-70h32.8c8.3 0 14.6 1.6 19.1 4.8 4.5 3.2 6.7 7.7 6.7 13.4 0 3.5-.8 6.5-2.4 9.2-1.6 2.7-3.8 4.7-6.6 6.2 3.9 1.3 6.9 3.4 9.2 6.4zm-45.8-29.8V179h18.4c4.5 0 8-.8 10.5-2.5 2.4-1.6 3.7-4 3.7-7.1 0-3.2-1.2-5.6-3.7-7.2-2.4-1.6-5.9-2.5-10.5-2.5h-18.4zm36.1 39.5c0-6.7-5-10.1-15.1-10.1h-21v20.2h21c10.1 0 15.1-3.4 15.1-10.1zM635 215.9c-5.7-3.1-10.2-7.4-13.5-12.9-3.3-5.5-4.9-11.7-4.9-18.5s1.6-13 4.9-18.5c3.3-5.5 7.8-9.8 13.5-12.9 5.7-3.1 12.2-4.7 19.3-4.7 7.1 0 13.6 1.5 19.3 4.7 5.7 3.1 10.2 7.4 13.5 12.8 3.3 5.5 4.9 11.6 4.9 18.5s-1.6 13-4.9 18.5c-3.3 5.5-7.8 9.8-13.5 12.8-5.7 3.1-12.2 4.7-19.3 4.7-7.1.1-13.6-1.4-19.3-4.5zm31.9-9.9c3.7-2.1 6.7-5 8.8-8.8 2.1-3.8 3.2-8 3.2-12.7 0-4.7-1.1-8.9-3.2-12.7-2.1-3.8-5.1-6.7-8.8-8.8-3.7-2.1-7.9-3.1-12.6-3.1-4.7 0-8.9 1-12.6 3.1-3.7 2.1-6.7 5-8.8 8.8-2.1 3.8-3.2 8-3.2 12.7 0 4.7 1.1 8.9 3.2 12.7 2.1 3.8 5.1 6.7 8.8 8.8 3.7 2.1 7.9 3.1 12.6 3.1 4.7 0 8.9-1 12.6-3.1zM771.6 219.5 757.3 199c-.6.1-1.5.1-2.7.1h-15.8v20.4h-13v-70h28.8c6.1 0 11.3 1 15.8 3s8 4.9 10.4 8.6c2.4 3.7 3.6 8.2 3.6 13.3 0 5.3-1.3 9.8-3.8 13.6-2.6 3.8-6.2 6.6-11.1 8.5l16.1 23h-14zm-4.7-55.4c-2.9-2.4-7.2-3.6-12.9-3.6h-15.2v27.9H754c5.7 0 10-1.2 12.9-3.7 2.9-2.4 4.4-5.9 4.4-10.3 0-4.5-1.5-7.9-4.4-10.3zM877.7 189.5c2.3 3 3.4 6.6 3.4 11 0 6.1-2.3 10.8-7 14-4.7 3.3-11.5 5-20.4 5h-34.8v-70h32.8c8.3 0 14.6 1.6 19.1 4.8 4.5 3.2 6.7 7.7 6.7 13.4 0 3.5-.8 6.5-2.4 9.2-1.6 2.7-3.8 4.7-6.6 6.2 3.9 1.3 6.9 3.4 9.2 6.4zm-45.8-29.8V179h18.4c4.5 0 8-.8 10.5-2.5 2.4-1.6 3.7-4 3.7-7.1 0-3.2-1.2-5.6-3.7-7.2-2.4-1.6-5.9-2.5-10.5-2.5h-18.4zm36.1 39.5c0-6.7-5-10.1-15.1-10.1h-21v20.2h21c10.1 0 15.1-3.4 15.1-10.1zM915 149.5h13v70h-13v-70zM981.1 160.5h-23.2v-11h59.4v11h-23.2v59h-13v-59zM1089 203.3h-35l-6.9 16.2h-13.4l31.5-70h12.8l31.6 70H1096l-7-16.2zm-4.3-10.2-13.2-30.6-13.1 30.6h26.3zM1138.5 149.5h13v59h36.6v11h-49.6v-70z"/>
  <g>
    <path class="st1" d="M192.4 139.8c-11.3-5-23.4-5.6-34.5-2.5-1.2.3-1.8 1.6-1.4 2.7l4 10.5.1.3c.4 1 1.4 1.5 2.4 1.3a34.4 34.4 0 0 1 22.9 2c7.5 3.4 13.3 9.1 16.8 15.9.5.9 1.6 1.3 2.5.9l.3-.1 10.5-4c1.1-.4 1.6-1.7 1.1-2.8a49.76 49.76 0 0 0-24.7-24.2z"/>
    <path class="st0" d="M157 158.5c.9-.5 1.3-1.6.9-2.5l-.7-1.8-.8-2.1-4-10.5-.8-2-.6-1.5c-.4-1.1-1.7-1.6-2.8-1.1a54.26 54.26 0 0 0-26.3 26.9 54.24 54.24 0 0 0-2.6 37.5c.3 1.2 1.6 1.8 2.7 1.4l1.5-.6 2-.8 10.5-4 2.1-.8 1.8-.7c1-.4 1.5-1.4 1.3-2.4-1.6-6.5-1.1-13.6 1.8-20.1 3.1-6.7 8-11.8 14-14.9zM223.9 170.9c-.3-1.2-1.6-1.8-2.7-1.4l-1.5.6-2 .8-10.5 4-2.1.8-1.8.7c-1 .4-1.5 1.4-1.3 2.4 1.6 6.5 1.1 13.6-1.8 20.1-2.9 6.5-7.9 11.6-13.7 14.7-.9.5-1.3 1.6-.9 2.5l.7 1.8.8 2.1 4 10.5.8 2 .6 1.5c.4 1.1 1.7 1.6 2.8 1.1a54.07 54.07 0 0 0 26.1-26.8c5.4-12.2 6-25.4 2.5-37.4z"/>
    <path class="st2" d="M156.4 220.1c-8.1-3.6-14.2-9.7-17.9-17.1-.5-.9-1.6-1.3-2.5-1l-6.7 2.6c-1.1.4-1.6 1.7-1.1 2.8a48.47 48.47 0 0 0 56.7 25.3c1.2-.3 1.8-1.6 1.4-2.7l-2.6-6.7c-.4-1-1.4-1.5-2.4-1.2-8.1 2.1-16.8 1.6-24.9-2z"/>
    <g>
      <path class="st1" d="M95.2 195c1.4 12.5 5.8 24 12.3 33.8a2 2 0 0 0 2.9.5l9.1-6.7.2-.1c.9-.6 1.1-1.8.5-2.7-5-7.7-8.3-16.7-9.5-26.4a62 62 0 0 1 50.3-67.9c1.1-.2 1.8-1.2 1.7-2.2v-.2l-1.3-11.2v-.1c-.1-1.2-1.2-2-2.3-1.8-40.3 6.7-68.7 44-63.9 85z"/>
      <path class="st2" d="M235.7 178.9c1.2 10.1-.1 19.9-3.4 28.9-.4 1 .1 2.1 1.1 2.6l6.6 2.9c1.1.5 2.3 0 2.7-1.1a75.25 75.25 0 0 0-74.9-101c-1.2.1-2 1.1-1.9 2.3l.8 7.2c.1 1.1 1.1 1.9 2.2 1.8 33.4-1.9 62.9 22.7 66.8 56.4z"/>
      <path class="st0" d="m242.3 219-2-.9-10.3-4.5-2-.9-1.7-.7c-1-.4-2.1 0-2.6 1-8.6 16.5-25 28.6-44.9 30.9a57.88 57.88 0 0 1-50.6-19.9c-.7-.8-1.9-1-2.8-.3l-1.5 1.1-1.8 1.3-9 6.7-1.8 1.3-1.3 1c-.9.7-1.1 2-.4 2.9 17 20.4 43.5 32.1 71.8 28.9a81.23 81.23 0 0 0 63.4-44.5c.5-1 0-2.3-1-2.8l-1.5-.6z"/>
    </g>
    <g>
      <path class="st2" d="m216.6 267.7 3.3 6.4c.5 1 1.8 1.4 2.8.9 36.5-20.8 55.6-61.3 50.8-101.1-.1-1.1-1.2-1.9-2.4-1.8l-7.1 1.2a2.1 2.1 0 0 0-1.7 2.3c4.2 35.2-12.7 71-44.9 89.5-1 .4-1.3 1.6-.8 2.6z"/>
      <path class="st1" d="M191.9 83.8c-1.1-.2-2.2.6-2.4 1.7v.1l-1.7 11.1v.2c-.2 1.1.6 2.1 1.6 2.3a88.59 88.59 0 0 1 61.5 46.3c3.7 7.1 6.3 14.5 7.9 22 .2 1.1 1.2 1.8 2.3 1.6h.2l11.1-1.8h.1c1.1-.2 1.9-1.3 1.7-2.4a104.18 104.18 0 0 0-82.3-81.1z"/>
      <path class="st0" d="M122.6 90.1a107.27 107.27 0 0 0-44.8 43.4c-.6 1-.2 2.3.9 2.8l1.5.7 2 1 10.1 5.1 2 1 1.6.8c1 .5 2.2.1 2.7-.8a84.74 84.74 0 0 1 82.2-42.4c1.1.1 2.1-.6 2.2-1.7l.3-1.8.3-2.2 1.7-11.1.3-2.2.2-1.6c.2-1.1-.6-2.2-1.8-2.3-20.5-2.3-41.8 1.2-61.4 11.3z"/>
      <path class="st2" d="M91.4 227.8a90.44 90.44 0 0 1-2-78.9 2 2 0 0 0-.9-2.7L82 143c-1-.5-2.3-.1-2.8 1a102 102 0 0 0 2.1 89c4.3 8.4 9.6 15.9 15.7 22.5.8.8 2.1.9 2.9 0l5.1-5.1c.8-.8.8-2 0-2.8-5.2-5.9-9.9-12.5-13.6-19.8z"/>
      <path class="st1" d="M112.5 251.9c-.8-.7-2.1-.7-2.8.1l-.2.2-7.9 8-.1.1c-.8.8-.8 2.2.1 2.9 30.3 27.7 75.4 35.9 114.4 17.7 1-.5 1.5-1.8.9-2.8v-.1l-5.2-10-.1-.2a2 2 0 0 0-2.7-.9c-32.8 15-70.7 8.2-96.4-15z"/>
    </g>
  </g>
</svg>
