<svg width="387" height="59" viewBox="0 0 387 59" fill="none" xmlns="http://www.w3.org/2000/svg">
<path d="M35.8677 0C35.8677 0.103068 35.8677 0.206136 35.8677 0.314629C35.8677 2.08999 35.1625 3.79264 33.9071 5.04801C32.6517 6.30338 30.9491 7.00864 29.1737 7.00864C27.3984 7.00864 25.6957 6.30338 24.4404 5.04801C23.185 3.79264 22.4797 2.08999 22.4797 0.314629C22.4797 0.206136 22.4797 0.103068 22.4797 0H0V58.38H58.38V0H35.8677ZM27.861 52.1308L25.0185 38.0647H24.9696L21.8939 52.1308H17.9773L13.5399 31.4629H17.4077L20.0549 45.529H20.1037L23.2934 31.4629H26.9117L29.7759 45.7026H29.8247L32.8462 31.4629H36.6435L31.7125 52.1308H27.861ZM49.1581 52.1308L47.8399 47.5307H40.8801L39.8657 52.1308H35.9979L40.9995 31.4629H47.1022L53.1832 52.1308H49.1581Z" fill="#654FF0"/>
<path d="M43.3266 36.5567L41.6395 44.1404H46.8906L44.954 36.5567H43.3266Z" fill="#654FF0"/>
<path d="M110.36 42.9608H105.77L101.43 27.7208C101.243 27.0542 101.01 26.0942 100.73 24.8408C100.45 23.5875 100.28 22.7175 100.22 22.2308C100.1 22.9775 99.9101 23.9442 99.6501 25.1308C99.3901 26.3175 99.1701 27.2042 98.9901 27.7908L94.7601 42.9608H90.2301L86.9301 30.1608L83.5701 17.4008H87.8401L91.4901 32.2808C92.0024 34.3691 92.4096 36.4818 92.7101 38.6108C92.8367 37.6175 93.0301 36.5108 93.2901 35.2908C93.5501 34.0708 93.7834 33.0708 93.9901 32.2908L98.1501 17.3608H102.29L106.56 32.3608C107.107 34.4082 107.538 36.4848 107.85 38.5808C108.121 36.4538 108.542 34.3486 109.11 32.2808L112.75 17.4208H116.98L110.36 42.9608Z" fill="#393939"/>
<path d="M138.27 42.9609H123.82V17.4009H138.27V20.9309H127.99V27.9309H137.62V31.4309H127.99V39.4309H138.27V42.9609Z" fill="#393939"/>
<path d="M147.02 17.4009H154.61C158.13 17.4009 160.673 17.9142 162.24 18.9409C163.024 19.4728 163.655 20.2022 164.067 21.0555C164.48 21.9087 164.66 22.8557 164.59 23.8009C164.639 25.1354 164.234 26.4471 163.44 27.5209C162.612 28.545 161.425 29.214 160.12 29.3909V29.5609C161.645 29.7417 163.06 30.449 164.12 31.5609C165.006 32.7004 165.457 34.1188 165.39 35.5609C165.439 36.5843 165.247 37.6049 164.83 38.5409C164.413 39.4769 163.783 40.3023 162.99 40.9509C161.053 42.3554 158.688 43.0445 156.3 42.9009H147.02V17.4009ZM151.2 27.9609H155.2C156.53 28.0613 157.861 27.773 159.03 27.1309C159.46 26.7994 159.797 26.3635 160.011 25.8646C160.224 25.3658 160.307 24.8206 160.25 24.2809C160.289 23.7705 160.188 23.2591 159.959 22.8012C159.73 22.3434 159.382 21.9562 158.95 21.6809C157.667 21.0569 156.243 20.7811 154.82 20.8809H151.2V27.9609ZM151.2 31.3509V39.4409H155.64C157.046 39.5476 158.449 39.1968 159.64 38.4409C160.092 38.0559 160.446 37.5679 160.67 37.018C160.894 36.4681 160.984 35.8724 160.93 35.2809C160.979 34.7062 160.88 34.1287 160.642 33.6034C160.403 33.0781 160.034 32.6228 159.57 32.2809C158.322 31.5388 156.879 31.1903 155.43 31.2809L151.2 31.3509Z" fill="#393939"/>
<path d="M192.23 42.9609L189.05 34.8309H178.8L175.65 42.9609H172.65L182.75 17.2809H185.25L195.3 42.9409L192.23 42.9609ZM188.12 32.1609L185.12 24.2409C184.733 23.2409 184.337 22.0109 183.93 20.5509C183.646 21.814 183.289 23.0594 182.86 24.2809L179.86 32.2009L188.12 32.1609Z" fill="#393939"/>
<path d="M218.61 36.1609C218.656 37.1701 218.457 38.1755 218.03 39.0913C217.604 40.0072 216.962 40.8064 216.16 41.4209C214.219 42.7735 211.882 43.4387 209.52 43.3109C207.13 43.4288 204.742 43.0297 202.52 42.1409V39.2809C203.628 39.7251 204.777 40.06 205.95 40.2809C207.157 40.5329 208.387 40.6602 209.62 40.6609C211.196 40.7713 212.765 40.3754 214.1 39.5309C214.588 39.1706 214.981 38.6958 215.242 38.1482C215.504 37.6006 215.627 36.9971 215.6 36.3909C215.635 35.6285 215.451 34.8721 215.07 34.2109C214.611 33.5522 214.001 33.0137 213.29 32.6409C212.07 31.9966 210.799 31.4548 209.49 31.0209C207.569 30.4568 205.817 29.4262 204.39 28.0209C203.331 26.7436 202.786 25.1181 202.86 23.4609C202.828 22.5572 203.014 21.6591 203.4 20.8415C203.786 20.0239 204.362 19.3105 205.08 18.7609C206.78 17.5263 208.851 16.909 210.95 17.0109C213.355 16.9861 215.739 17.4629 217.95 18.4109L217.02 21.0009C215.08 20.1507 212.988 19.6985 210.87 19.6709C209.564 19.5929 208.268 19.9441 207.18 20.6709C206.747 20.9963 206.4 21.4222 206.168 21.9117C205.936 22.4012 205.827 22.9397 205.85 23.4809C205.819 24.238 205.988 24.9899 206.34 25.6609C206.751 26.3106 207.318 26.8469 207.99 27.2209C209.124 27.856 210.316 28.3817 211.55 28.7909C213.603 29.3845 215.494 30.4378 217.08 31.8709C218.129 33.047 218.678 34.5862 218.61 36.1609Z" fill="#393939"/>
<path d="M243.63 36.1609C243.676 37.1701 243.477 38.1755 243.05 39.0913C242.624 40.0072 241.982 40.8064 241.18 41.4209C239.239 42.7735 236.902 43.4387 234.54 43.3109C232.15 43.4288 229.762 43.0297 227.54 42.1409V39.2809C228.648 39.7251 229.797 40.06 230.97 40.2809C232.177 40.5329 233.407 40.6602 234.64 40.6609C236.216 40.7713 237.785 40.3754 239.12 39.5309C239.608 39.1706 240.001 38.6958 240.262 38.1482C240.524 37.6006 240.647 36.9971 240.62 36.3909C240.655 35.6285 240.471 34.8721 240.09 34.2109C239.631 33.5522 239.021 33.0137 238.31 32.6409C237.09 31.9966 235.819 31.4548 234.51 31.0209C232.589 30.4568 230.837 29.4262 229.41 28.0209C228.352 26.7436 227.806 25.1181 227.88 23.4609C227.849 22.5572 228.034 21.6591 228.42 20.8415C228.806 20.0239 229.382 19.3105 230.1 18.7609C231.8 17.5263 233.871 16.909 235.97 17.0109C238.375 16.9861 240.759 17.4629 242.97 18.4109L242.04 21.0009C240.1 20.1507 238.008 19.6985 235.89 19.6709C234.584 19.5929 233.288 19.9441 232.2 20.6709C231.767 20.9963 231.42 21.4222 231.188 21.9117C230.956 22.4012 230.847 22.9397 230.87 23.4809C230.839 24.238 231.008 24.9899 231.36 25.6609C231.771 26.3106 232.338 26.8469 233.01 27.2209C234.144 27.856 235.336 28.3817 236.57 28.7909C238.623 29.3845 240.514 30.4378 242.1 31.8709C243.149 33.047 243.698 34.5862 243.63 36.1609Z" fill="#393939"/>
<path d="M268.47 42.9609H254.23V17.4009H268.48V20.0409H257.2V28.2809H267.79V30.9009H257.2V40.2809H268.48L268.47 42.9609Z" fill="#393939"/>
<path d="M290.82 42.9609L282.15 20.2809H282.01C282.17 22.0742 282.253 24.2075 282.26 26.6809V42.9409H279.52V17.4009H284L292.09 38.4809H292.23L300.36 17.4009H304.8V42.9609H301.8V26.4909C301.8 24.6042 301.883 22.5542 302.05 20.3409H301.91L293.17 42.9609H290.82Z" fill="#393939"/>
<path d="M317.2 17.4009H324.42C327.813 17.4009 330.267 17.9075 331.78 18.9209C332.544 19.4565 333.154 20.1817 333.552 21.0251C333.95 21.8685 334.122 22.801 334.05 23.7309C334.102 25.0945 333.65 26.4295 332.78 27.4809C331.809 28.5318 330.499 29.2079 329.08 29.3909V29.5609C332.96 30.2275 334.9 32.2675 334.9 35.6809C334.951 36.691 334.769 37.6994 334.366 38.6274C333.964 39.5554 333.352 40.3779 332.58 41.0309C330.714 42.4143 328.419 43.0943 326.1 42.9509H317.18L317.2 17.4009ZM320.2 28.3409H325.09C326.666 28.4623 328.242 28.1143 329.62 27.3409C330.107 26.9429 330.488 26.4305 330.729 25.8494C330.97 25.2684 331.063 24.6367 331 24.0109C331.048 23.4032 330.93 22.794 330.658 22.2481C330.387 21.7022 329.973 21.24 329.46 20.9109C327.944 20.151 326.253 19.8059 324.56 19.9109H320.19L320.2 28.3409ZM320.2 30.8609V40.4209H325.53C327.172 40.5369 328.808 40.1157 330.19 39.2209C330.731 38.7661 331.155 38.1882 331.426 37.5357C331.698 36.8832 331.809 36.1751 331.75 35.4709C331.799 34.8 331.678 34.1276 331.399 33.5158C331.119 32.9041 330.69 32.3727 330.15 31.9709C328.674 31.1209 326.979 30.7309 325.28 30.8509L320.2 30.8609Z" fill="#393939"/>
<path d="M345.77 42.9609V17.4009H348.77V40.2809H360.05V42.9709L345.77 42.9609Z" fill="#393939"/>
<path d="M376.22 30.1809L383.04 17.4009H386.26L377.73 33.0409V42.9509H374.73V33.1809L366.22 17.3909H369.47L376.22 30.1809Z" fill="#393939"/>
</svg>
