<?xml version="1.0" encoding="utf-8"?>
<!-- Generator: Adobe Illustrator 25.3.1, SVG Export Plug-In . SVG Version: 6.00 Build 0)  -->
<svg version="1.1" id="Layer_2" xmlns="http://www.w3.org/2000/svg" xmlns:xlink="http://www.w3.org/1999/xlink" x="0px" y="0px"
	 viewBox="0 0 766.9 327" style="enable-background:new 0 0 766.9 327;" xml:space="preserve">
<style type="text/css">
	.st0{fill:#FFFFFF;}
	.st1{fill:#231F20;}
	.st2{fill:#357FBE;}
	.st3{fill:#224E84;}
	.st4{fill:#74C2B0;}
	.st5{fill:#A6A8AB;}
	.st6{fill:#58595B;}
	.st7{fill:#4C6275;}
	.st8{fill:#303E4E;}
</style>
<g>
	<path class="st7" d="M405.9,165.9h7.1v26.7c-3.3,2.9-7.1,5.1-11.6,6.6c-4.5,1.5-9.2,2.3-14.1,2.3c-7,0-13.3-1.5-18.9-4.6
		c-5.6-3.1-10-7.3-13.2-12.8c-3.2-5.4-4.8-11.5-4.8-18.2c0-6.7,1.6-12.8,4.8-18.2c3.2-5.4,7.6-9.7,13.2-12.8
		c5.6-3.1,11.9-4.6,19-4.6c5.3,0,10.2,0.8,14.7,2.5c4.5,1.7,8.2,4.2,11.3,7.5l-4.6,4.7c-5.5-5.5-12.6-8.2-21.1-8.2
		c-5.7,0-10.8,1.2-15.3,3.8c-4.6,2.5-8.2,6-10.8,10.4c-2.6,4.4-3.9,9.4-3.9,14.8c0,5.5,1.3,10.4,3.9,14.8c2.6,4.4,6.2,7.9,10.7,10.4
		c4.5,2.5,9.6,3.8,15.3,3.8c7.2,0,13.3-1.8,18.3-5.4V165.9z"/>
	<path class="st7" d="M501.7,200.9l-16-22.5c-1.8,0.2-3.7,0.3-5.6,0.3h-18.8v22.2h-7.4v-70h26.2c8.9,0,15.9,2.1,21,6.4
		c5.1,4.3,7.6,10.1,7.6,17.6c0,5.5-1.4,10.1-4.2,13.8c-2.8,3.8-6.7,6.5-11.8,8.2l17.1,24H501.7z M495.8,167.8
		c3.7-3.1,5.5-7.4,5.5-12.9c0-5.7-1.8-10-5.5-13c-3.7-3-9-4.5-15.9-4.5h-18.6v35.1h18.6C486.9,172.4,492.2,170.9,495.8,167.8z"/>
	<path class="st7" d="M590.1,182.2h-39l-8.4,18.7H535l32-70h7.3l32,70h-7.8L590.1,182.2z M587.4,176.2l-16.8-37.6l-16.8,37.6H587.4z
		"/>
	<path class="st7" d="M692.5,130.9l-31,70h-7.3l-31-70h8l26.8,60.8l27-60.8H692.5z"/>
</g>
<g>
	<polygon class="st7" points="112.6,197.1 169.2,227 225.7,197 274.9,222.8 169.2,278.2 63.6,222.8 	"/>
	<polygon class="st4" points="112.6,137.8 169.1,167.4 225.7,137.7 274.9,163.5 169.2,218.9 63.6,163.5 	"/>
	<g>
		<polygon class="st8" points="218.3,74.5 169.2,48.8 120,74.6 169.1,100.3 		"/>
		<polygon class="st8" points="120,133.8 169.2,159.6 218.3,133.8 169.1,108.1 		"/>
		<polygon class="st8" points="225.7,78.4 176.5,104.2 225.7,129.9 274.9,104.2 		"/>
		<polygon class="st8" points="112.6,78.5 63.6,104.2 112.6,129.9 161.6,104.2 		"/>
	</g>
</g>
</svg>
