<svg width="3231" height="1364" viewBox="0 0 3231 1364" fill="none" xmlns="http://www.w3.org/2000/svg">
<path d="M1539.1 837.484C1517.57 837.484 1496.87 834.034 1477 827.134C1457.4 820.234 1442.22 811.126 1431.46 799.81L1443.46 776.212C1453.95 786.7 1467.89 795.256 1485.28 801.88C1502.67 808.228 1520.61 811.402 1539.1 811.402C1565.04 811.402 1584.5 806.71 1597.47 797.326C1610.44 787.666 1616.93 775.246 1616.93 760.066C1616.93 748.474 1613.34 739.228 1606.17 732.328C1599.27 725.428 1590.71 720.184 1580.5 716.596C1570.29 712.732 1556.07 708.592 1537.86 704.176C1516.05 698.656 1498.66 693.412 1485.69 688.444C1472.72 683.2 1461.54 675.334 1452.16 664.846C1443.05 654.358 1438.5 640.144 1438.5 622.204C1438.5 607.576 1442.36 594.328 1450.09 582.46C1457.82 570.316 1469.68 560.656 1485.69 553.48C1501.7 546.304 1521.57 542.716 1545.31 542.716C1561.87 542.716 1578.01 545.062 1593.75 549.754C1609.75 554.17 1623.55 560.38 1635.15 568.384L1624.8 592.81C1612.65 584.806 1599.68 578.872 1585.88 575.008C1572.08 570.868 1558.56 568.798 1545.31 568.798C1519.92 568.798 1500.73 573.766 1487.76 583.702C1475.07 593.362 1468.72 605.92 1468.72 621.376C1468.72 632.968 1472.17 642.352 1479.07 649.528C1486.24 656.428 1495.08 661.81 1505.56 665.674C1516.33 669.262 1530.68 673.264 1548.62 677.68C1569.87 682.924 1586.98 688.168 1599.96 693.412C1613.2 698.38 1624.38 706.108 1633.49 716.596C1642.6 726.808 1647.15 740.746 1647.15 758.41C1647.15 773.038 1643.15 786.424 1635.15 798.568C1627.42 810.436 1615.41 819.958 1599.13 827.134C1582.84 834.034 1562.83 837.484 1539.1 837.484ZM1982.59 757.582H1821.13L1786.35 835H1754.48L1886.96 545.2H1917.18L2049.66 835H2017.37L1982.59 757.582ZM1971.41 732.742L1901.86 577.078L1832.31 732.742H1971.41ZM2226.29 571.696H2124.44V545.2H2358.77V571.696H2256.92V835H2226.29V571.696Z" fill="#4E6176"/>
<circle cx="682.855" cy="686.712" r="333.855" fill="#313D4F"/>
<path d="M946.425 651.569C946.425 768.021 855.955 862.425 744.355 862.425C632.754 862.425 542.284 768.021 542.284 651.569C542.284 535.117 632.754 440.713 744.355 440.713C855.955 440.713 946.425 535.117 946.425 651.569Z" fill="#4E6176"/>
<path fill-rule="evenodd" clip-rule="evenodd" d="M717.998 265C727.702 265 735.569 272.867 735.569 282.571V493.427C735.569 503.132 727.702 510.998 717.998 510.998C708.293 510.998 700.426 503.132 700.426 493.427V282.571C700.426 272.867 708.293 265 717.998 265Z" fill="#7CC1B0"/>
<path fill-rule="evenodd" clip-rule="evenodd" d="M859.188 699.66C861.741 690.297 871.401 684.778 880.763 687.331L1074.05 740.045C1083.41 742.598 1088.93 752.258 1086.38 761.62C1083.82 770.983 1074.16 776.503 1064.8 773.949L871.516 721.235C862.154 718.682 856.634 709.022 859.188 699.66Z" fill="#7CC1B0"/>
<ellipse cx="575.868" cy="778.986" rx="121.63" ry="56.1369" transform="rotate(52.2077 575.868 778.986)" fill="#7CC1B0"/>
<ellipse cx="587.59" cy="769.836" rx="31.8945" ry="14.7205" transform="rotate(52.2077 587.59 769.836)" fill="#4E6176"/>
</svg>
